<svg width="29" height="29" viewBox="0 0 29 29" fill="none" xmlns="http://www.w3.org/2000/svg">
<rect x="0.707107" y="14.1422" width="19" height="19" transform="rotate(-45 0.707107 14.1422)" fill="#2E85FF"/>
<rect x="0.707107" y="14.1422" width="19" height="19" transform="rotate(-45 0.707107 14.1422)" stroke="#2E85FF"/>
<path d="M15.6077 8.44482L15.3811 16.4058H13.6389L13.4124 8.44482H15.6077ZM13.3499 18.8589C13.3499 18.5516 13.454 18.2938 13.6624 18.0854C13.8759 17.8719 14.1624 17.7651 14.5217 17.7651C14.8811 17.7651 15.165 17.8719 15.3733 18.0854C15.5868 18.2938 15.6936 18.5516 15.6936 18.8589C15.6936 19.161 15.5868 19.4162 15.3733 19.6245C15.165 19.8328 14.8811 19.937 14.5217 19.937C14.1624 19.937 13.8759 19.8328 13.6624 19.6245C13.454 19.4162 13.3499 19.161 13.3499 18.8589Z" fill="white"/>
</svg>
