<svg width="29" height="29" viewBox="0 0 29 29" fill="none" xmlns="http://www.w3.org/2000/svg">
<rect x="0.707107" y="14.1422" width="19" height="19" transform="rotate(-45 0.707107 14.1422)" fill="#FF0000"/>
<rect x="0.707107" y="14.1422" width="19" height="19" transform="rotate(-45 0.707107 14.1422)" stroke="#FF0000"/>
<path d="M10.6764 8.44482L10.4499 16.4058H8.70767L8.4811 8.44482H10.6764ZM8.4186 18.8589C8.4186 18.5516 8.52277 18.2938 8.7311 18.0854C8.94464 17.8719 9.2311 17.7651 9.59048 17.7651C9.94985 17.7651 10.2337 17.8719 10.442 18.0854C10.6556 18.2938 10.7624 18.5516 10.7624 18.8589C10.7624 19.161 10.6556 19.4162 10.442 19.6245C10.2337 19.8328 9.94985 19.937 9.59048 19.937C9.2311 19.937 8.94464 19.8328 8.7311 19.6245C8.52277 19.4162 8.4186 19.161 8.4186 18.8589ZM15.1077 8.44482L14.8811 16.4058H13.1389L12.9124 8.44482H15.1077ZM12.8499 18.8589C12.8499 18.5516 12.954 18.2938 13.1624 18.0854C13.3759 17.8719 13.6624 17.7651 14.0217 17.7651C14.3811 17.7651 14.665 17.8719 14.8733 18.0854C15.0868 18.2938 15.1936 18.5516 15.1936 18.8589C15.1936 19.161 15.0868 19.4162 14.8733 19.6245C14.665 19.8328 14.3811 19.937 14.0217 19.937C13.6624 19.937 13.3759 19.8328 13.1624 19.6245C12.954 19.4162 12.8499 19.161 12.8499 18.8589ZM19.5389 8.44482L19.3124 16.4058H17.5702L17.3436 8.44482H19.5389ZM17.2811 18.8589C17.2811 18.5516 17.3853 18.2938 17.5936 18.0854C17.8071 17.8719 18.0936 17.7651 18.453 17.7651C18.8124 17.7651 19.0962 17.8719 19.3045 18.0854C19.5181 18.2938 19.6249 18.5516 19.6249 18.8589C19.6249 19.161 19.5181 19.4162 19.3045 19.6245C19.0962 19.8328 18.8124 19.937 18.453 19.937C18.0936 19.937 17.8071 19.8328 17.5936 19.6245C17.3853 19.4162 17.2811 19.161 17.2811 18.8589Z" fill="white"/>
</svg>
