<svg width="29" height="29" viewBox="0 0 29 29" fill="none" xmlns="http://www.w3.org/2000/svg">
<rect x="0.707107" y="14.1422" width="19" height="19" transform="rotate(-45 0.707107 14.1422)" fill="#21A600"/>
<rect x="0.707107" y="14.1422" width="19" height="19" transform="rotate(-45 0.707107 14.1422)" stroke="#21A600"/>
<path d="M12.892 8.44482L12.6655 16.4058H10.9233L10.6967 8.44482H12.892ZM10.6342 18.8589C10.6342 18.5516 10.7384 18.2938 10.9467 18.0854C11.1603 17.8719 11.4467 17.7651 11.8061 17.7651C12.1655 17.7651 12.4493 17.8719 12.6577 18.0854C12.8712 18.2938 12.978 18.5516 12.978 18.8589C12.978 19.161 12.8712 19.4162 12.6577 19.6245C12.4493 19.8328 12.1655 19.937 11.8061 19.937C11.4467 19.937 11.1603 19.8328 10.9467 19.6245C10.7384 19.4162 10.6342 19.161 10.6342 18.8589ZM17.3233 8.44482L17.0967 16.4058H15.3545L15.128 8.44482H17.3233ZM15.0655 18.8589C15.0655 18.5516 15.1696 18.2938 15.378 18.0854C15.5915 17.8719 15.878 17.7651 16.2374 17.7651C16.5967 17.7651 16.8806 17.8719 17.0889 18.0854C17.3025 18.2938 17.4092 18.5516 17.4092 18.8589C17.4092 19.161 17.3025 19.4162 17.0889 19.6245C16.8806 19.8328 16.5967 19.937 16.2374 19.937C15.878 19.937 15.5915 19.8328 15.378 19.6245C15.1696 19.4162 15.0655 19.161 15.0655 18.8589Z" fill="white"/>
</svg>
